<?xml version="1.0" encoding="UTF-8" standalone="no"?>
<!-- Created with Inkscape (http://www.inkscape.org/) -->

<svg
   xmlns:dc="http://purl.org/dc/elements/1.1/"
   xmlns:cc="http://creativecommons.org/ns#"
   xmlns:rdf="http://www.w3.org/1999/02/22-rdf-syntax-ns#"
   xmlns:svg="http://www.w3.org/2000/svg"
   xmlns="http://www.w3.org/2000/svg"
   xmlns:sodipodi="http://sodipodi.sourceforge.net/DTD/sodipodi-0.dtd"
   xmlns:inkscape="http://www.inkscape.org/namespaces/inkscape"
   version="1.0"
   width="113"
   height="359"
   id="svg1894"
   sodipodi:docname="sharp.svg"
   inkscape:version="0.92.5 (2060ec1f9f, 2020-04-08)">
  <metadata
     id="metadata23">
    <rdf:RDF>
      <cc:Work
         rdf:about="">
        <dc:format>image/svg+xml</dc:format>
        <dc:type
           rdf:resource="http://purl.org/dc/dcmitype/StillImage" />
        <dc:title />
      </cc:Work>
    </rdf:RDF>
  </metadata>
  <sodipodi:namedview
     pagecolor="#ffffff"
     bordercolor="#666666"
     borderopacity="1"
     objecttolerance="10"
     gridtolerance="10"
     guidetolerance="10"
     inkscape:pageopacity="0"
     inkscape:pageshadow="2"
     inkscape:window-width="3840"
     inkscape:window-height="2004"
     id="namedview21"
     showgrid="false"
     inkscape:zoom="1.5733333"
     inkscape:cx="442.27231"
     inkscape:cy="367.61336"
     inkscape:window-x="-16"
     inkscape:window-y="-16"
     inkscape:window-maximized="1"
     inkscape:current-layer="g2103" />
  <defs
     id="defs1896" />
  <g
     transform="matrix(17.96174,0,0,18.428288,4.4040636,19.905388)"
     id="layer1">
    <g
       transform="translate(-84.196,-436.068)"
       style="fill:#000000"
       id="g2103">
      <path
         style="stroke-width:18.19351768"
         d="M 74.5625 5.8847656 L 74.5625 96.677734 L 38.638672 107.27344 L 38.638672 21.585938 L 29.101562 21.585938 L 29.101562 110.53516 L 4.4042969 117.63086 L 4.4042969 153.5293 L 29.101562 146.45312 L 29.101562 232.53125 L 4.4042969 239.58984 L 4.4042969 275.33984 L 29.101562 268.26367 L 29.101562 355.88477 L 38.638672 355.88477 L 38.638672 265.13086 L 74.5625 254.99414 L 74.5625 340.24023 L 84.675781 340.24023 L 84.675781 251.78906 L 109.37305 244.69336 L 109.37305 208.81445 L 84.675781 216.07422 L 84.675781 129.83008 L 109.37305 122.75391 L 109.37305 86.929688 L 84.675781 94.005859 L 84.675781 5.8847656 L 74.5625 5.8847656 z M 74.5625 132.92578 L 74.5625 219.16992 L 38.638672 229.78516 L 38.638672 143.09766 L 74.5625 132.92578 z "
         transform="matrix(0.05567389,0,0,0.0542644,83.950809,434.98785)"
         id="path2109" />
    </g>
  </g>
</svg>
